<svg width="500" height="486" viewBox="0 0 500 486" fill="none" xmlns="http://www.w3.org/2000/svg">
<path fill-rule="evenodd" clip-rule="evenodd" d="M168.971 141.943C166.104 144.943 157.783 159.324 150.48 173.903C138.506 197.81 137.072 199.713 135.893 193.29C134.658 186.561 133.938 186.18 122.744 186.328C100.439 186.621 98.5836 200.757 120.475 203.614C126.249 204.368 130.974 205.371 130.974 205.844C130.974 206.316 126.772 210.453 121.634 215.036L112.293 223.37L112.694 266.567C112.916 290.327 114.116 313.037 115.364 317.035L117.633 324.306L249.778 324.933L381.923 325.558L384.564 318.875C388.245 309.554 390.843 259.181 388.676 239.151C387.014 223.799 386.103 221.824 376.825 213.434L366.772 204.346H374.498C386.454 204.346 395 200.306 395 194.652C395 188.727 385.092 184.387 373.98 185.446C367.736 186.042 366.132 187.469 365.001 193.441C363.748 200.047 362.358 198.147 349.782 172.619C342.045 156.917 333.34 142.755 330.045 140.508C324.871 136.982 314.963 136.49 249.168 136.49C174.616 136.49 174.157 136.522 168.971 141.943ZM163.783 166.143C159.521 175.825 155.304 186.808 154.408 190.55L152.781 197.35L166.015 196.608C178.84 195.888 179.321 195.6 181.478 187.382C184.559 175.648 190.106 170.418 199.471 170.418C208.834 170.418 214.379 175.645 217.47 187.382L219.704 195.864L245.706 196.572C280.101 197.505 281.897 196.964 283.853 185.068C285.596 174.456 290.677 170.418 302.29 170.418C311.344 170.418 317.561 176.889 319.464 188.293L320.928 197.076H334.613H348.297L346.848 190.026C346.051 186.151 341.709 175.517 337.196 166.398L328.994 149.819L250.261 149.179L171.529 148.539L163.783 166.143ZM127.38 233.968C122.256 241.083 122.47 248.731 127.925 253.534C138.006 262.411 173.432 261.66 178.491 252.466C182.242 245.644 176.152 239.655 159.185 233.478C141.431 227.015 132.282 227.155 127.38 233.968ZM339.173 234.586C323.922 240.685 319.827 244.221 320.923 250.331C322.144 257.133 333.138 260.376 351.271 259.283C365.389 258.432 369.394 257.247 373.066 252.836C378.586 246.206 378.755 241.008 373.686 233.968C368.563 226.848 358.049 227.037 339.173 234.586ZM173.941 271.383C168.74 273.426 170.379 279.957 180.232 296.446L189.638 312.188L245.616 312.872C276.405 313.25 303.968 312.991 306.873 312.3C314.557 310.47 331.776 278.137 327.644 273.292C325.143 270.36 312.447 269.81 250.852 269.97C210.262 270.074 175.654 270.712 173.941 271.383ZM185.772 279.472C185.772 281.026 208.605 281.896 249.288 281.896C289.97 281.896 312.803 281.026 312.803 279.472C312.803 277.919 289.97 277.049 249.288 277.049C208.605 277.049 185.772 277.919 185.772 279.472ZM190.754 291.589C190.754 293.135 211.925 294.013 249.288 294.013C286.65 294.013 307.822 293.135 307.822 291.589C307.822 290.043 286.65 289.166 249.288 289.166C211.925 289.166 190.754 290.043 190.754 291.589ZM194.49 303.706C193.481 305.294 211.901 306.13 247.895 306.13C282.864 306.13 302.84 305.248 302.84 303.706C302.84 300.411 196.585 300.411 194.49 303.706ZM113.538 338.587V349.752H134.71H155.882V340.058V330.364H138.651C129.173 330.364 119.646 329.703 117.479 328.893C114.236 327.684 113.538 329.402 113.538 338.587ZM364.488 329.741L345.184 330.568V340.16V349.752H366.356H387.528V338.846C387.528 332.848 386.686 328.161 385.659 328.428C384.633 328.697 375.106 329.288 364.488 329.741Z" fill="white" fill-opacity="0.909"/>
<path d="M490 243.121C490 371.149 382.844 475.463 250 475.463C117.156 475.463 10 371.149 10 243.121C10 115.092 117.156 10.7783 250 10.7783C382.844 10.7783 490 115.092 490 243.121Z" stroke="#F2F2F2" stroke-width="20"/>
</svg>
