<svg width="100" height="100" viewBox="0 0 100 100" fill="none" xmlns="http://www.w3.org/2000/svg">
<path fill-rule="evenodd" clip-rule="evenodd" d="M33.7943 29.125C33.2209 29.744 31.5565 32.711 30.0959 35.719C27.7013 40.6515 27.4143 41.044 27.1787 39.719C26.9316 38.3305 26.7876 38.252 24.5489 38.2825C20.0879 38.343 19.7167 41.2595 24.0951 41.849C25.2498 42.0045 26.1948 42.2115 26.1948 42.309C26.1948 42.4065 25.3544 43.26 24.3267 44.2055L22.4586 45.925L22.5388 54.8375C22.5831 59.7395 22.8233 64.425 23.0728 65.25L23.5267 66.75L49.9557 66.8795L76.3847 67.0085L76.9127 65.6295C77.649 63.7065 78.1686 53.3135 77.7352 49.181C77.4029 46.0135 77.2206 45.606 75.3649 43.875L73.3543 42H74.8996C77.2908 42 79 41.1665 79 40C79 38.7775 77.0183 37.882 74.796 38.1005C73.5471 38.2235 73.2263 38.518 73.0001 39.75C72.7496 41.113 72.4716 40.721 69.9564 35.454C68.4091 32.2145 66.668 29.2925 66.0089 28.829C64.9742 28.1015 62.9926 28 49.8336 28C34.9231 28 34.8315 28.0065 33.7943 29.125ZM32.7566 34.118C31.9043 36.1155 31.0609 38.3815 30.8815 39.1535L30.5562 40.5565L33.203 40.4035C35.768 40.255 35.8641 40.1955 36.2956 38.5C36.9118 36.079 38.0212 35 39.8943 35C41.7669 35 42.8758 36.0785 43.494 38.5L43.9408 40.25L49.1412 40.396C56.0203 40.5885 56.3795 40.477 56.7705 38.0225C57.1192 35.833 58.1355 35 60.4579 35C62.2687 35 63.5121 36.335 63.8927 38.688L64.1857 40.5H66.9226H69.6595L69.3695 39.0455C69.2101 38.246 68.3418 36.052 67.4392 34.1705L65.7987 30.75L50.0523 30.618L34.3059 30.486L32.7566 34.118ZM25.476 48.1115C24.4513 49.5795 24.4941 51.1575 25.5851 52.1485C27.6011 53.98 34.6865 53.825 35.6983 51.928C36.4485 50.5205 35.2305 49.285 31.837 48.0105C28.2861 46.677 26.4564 46.706 25.476 48.1115ZM67.8347 48.239C64.7844 49.4975 63.9655 50.227 64.1847 51.4875C64.4288 52.891 66.6276 53.56 70.2543 53.3345C73.0779 53.159 73.8789 52.9145 74.6132 52.0045C75.7171 50.6365 75.751 49.564 74.7372 48.1115C73.7125 46.6425 71.6098 46.6815 67.8347 48.239ZM34.7881 55.831C33.748 56.2525 34.0757 57.6 36.0465 61.002L37.9275 64.25L49.1232 64.391C55.281 64.469 60.7937 64.4155 61.3745 64.273C62.9114 63.8955 66.3552 57.2245 65.5287 56.225C65.0285 55.62 62.4894 55.5065 50.1704 55.5395C42.0523 55.561 35.1309 55.6925 34.7881 55.831ZM37.1544 57.5C37.1544 57.8205 41.721 58 49.8575 58C57.994 58 62.5607 57.8205 62.5607 57.5C62.5607 57.1795 57.994 57 49.8575 57C41.721 57 37.1544 57.1795 37.1544 57.5ZM38.1507 60C38.1507 60.319 42.3851 60.5 49.8575 60.5C57.33 60.5 61.5643 60.319 61.5643 60C61.5643 59.681 57.33 59.5 49.8575 59.5C42.3851 59.5 38.1507 59.681 38.1507 60ZM38.898 62.5C38.6962 62.8275 42.3801 63 49.579 63C56.5727 63 60.568 62.818 60.568 62.5C60.568 61.82 39.3169 61.82 38.898 62.5ZM22.7077 69.6965V72H26.9421H31.1764V70V68H27.7302C25.8346 68 23.9292 67.8635 23.4958 67.6965C22.8472 67.447 22.7077 67.8015 22.7077 69.6965ZM72.8975 67.8715L69.0368 68.042V70.021V72H73.2711H77.5055V69.75C77.5055 68.5125 77.3371 67.5455 77.1319 67.6005C76.9267 67.656 75.0212 67.778 72.8975 67.8715Z" fill="white" fill-opacity="0.909"/>
<circle cx="50" cy="50" r="47" stroke="#F2F2F2" stroke-width="6"/>
</svg>
